<?xml version="1.0" encoding="utf-8"?>
<!-- Generator: Adobe Illustrator 18.0.0, SVG Export Plug-In . SVG Version: 6.00 Build 0)  -->
<!DOCTYPE svg PUBLIC "-//W3C//DTD SVG 1.1//EN" "http://www.w3.org/Graphics/SVG/1.1/DTD/svg11.dtd">
<svg version="1.1" id="wordmark" xmlns="http://www.w3.org/2000/svg" xmlns:xlink="http://www.w3.org/1999/xlink" x="0px" y="0px"
	 width="720.3px" height="106px" viewBox="0 0 720.3 106" style="enable-background:new 0 0 720.3 106;" xml:space="preserve">
<g>
	<g>
		<g>
			<rect x="0" y="8.4" style="fill:#1E1E1E;" width="12.7" height="95.3"/>
			<polygon style="fill:#1E1E1E;" points="57.6,105.1 67.7,96.8 31.8,56.2 63.3,14.4 53.4,7.3 17.1,56.9 			"/>
		</g>
		<path style="fill:#1E1E1E;" d="M110.6,102.5c4-1.6,7.8-3.8,11.3-6.6l1.5,7.7h8.7V58c0-18-8.3-26.9-24.8-26.9c-4,0-8,0.6-12.1,1.7
			c-4.1,1.1-7.8,2.6-11.3,4.6l3.3,8.6c2.9-1.3,6-2.4,9.4-3.2c3.4-0.9,6.6-1.3,9.7-1.3c9.7,0,14.6,5.5,14.6,16.4v4.6h-13.8
			c-9.1,0-16,1.9-20.8,5.7c-4.8,3.8-7.2,9.3-7.2,16.5c0,6.4,1.8,11.3,5.3,14.9c3.5,3.6,8.5,5.4,14.7,5.4
			C102.7,104.8,106.5,104,110.6,102.5z M90.5,84c0-4.7,1.4-8.1,4.2-10.3c2.8-2.2,7.4-3.2,13.6-3.2h12.6v16.7
			c-2.5,2.3-5.5,4.2-9.2,5.7c-3.7,1.5-7.2,2.3-10.4,2.3C94.1,95.2,90.5,91.4,90.5,84z"/>
		<g>
			<polygon style="fill:#1E1E1E;" points="209.8,98.3 183.5,66.3 206.3,37.3 197,30.5 169.6,66.8 200.7,105.5 			"/>
			<polygon style="fill:#1E1E1E;" points="153.6,103.6 165.3,103.6 165.3,0.2 153.6,2.9 			"/>
		</g>
		<path style="fill:#1E1E1E;" d="M252,102.5c4-1.6,7.8-3.8,11.3-6.6l1.5,7.7h8.7V58c0-18-8.3-26.9-24.8-26.9c-4,0-8,0.6-12.1,1.7
			c-4.1,1.1-7.8,2.6-11.3,4.6l3.3,8.6c2.9-1.3,6-2.4,9.4-3.2c3.4-0.9,6.6-1.3,9.7-1.3c9.7,0,14.6,5.5,14.6,16.4v4.6h-13.8
			c-9.1,0-16,1.9-20.8,5.7c-4.8,3.8-7.2,9.3-7.2,16.5c0,6.4,1.8,11.3,5.3,14.9c3.5,3.6,8.5,5.4,14.7,5.4
			C244.2,104.8,247.9,104,252,102.5z M231.9,84c0-4.7,1.4-8.1,4.2-10.3c2.8-2.2,7.4-3.2,13.6-3.2h12.6v16.7
			c-2.5,2.3-5.5,4.2-9.2,5.7c-3.7,1.5-7.2,2.3-10.4,2.3C235.5,95.2,231.9,91.4,231.9,84z"/>
		<path style="fill:#1E1E1E;" d="M344.4,95.5c5.5-6.4,8.3-15.4,8.3-27.2c0-12.1-2.8-21.3-8.4-27.7c-5.6-6.4-13.3-9.6-23-9.6
			c-9.7,0-17.4,3.2-23,9.6c-5.6,6.4-8.4,15.6-8.4,27.7c0,11.8,2.8,20.9,8.3,27.2c5.5,6.4,13.2,9.5,23.1,9.5
			C331.2,105.1,338.8,101.9,344.4,95.5z M307,88.5c-3.3-4.6-4.9-11.3-4.9-20.2c0-9,1.6-15.9,4.9-20.6c3.3-4.7,8.1-7,14.3-7
			c6.3,0,11.1,2.3,14.3,7c3.3,4.7,4.9,11.6,4.9,20.6c0,8.9-1.6,15.7-4.9,20.2c-3.3,4.6-8.1,6.8-14.3,6.8
			C315,95.4,310.3,93.1,307,88.5z"/>
	</g>
	<g>
		<path style="fill:#1E1E1E;" d="M413,106c-8.1,0-15-1.4-20.6-4.3c-5.6-2.9-10.2-6.6-13.6-11.3c-3.5-4.7-5.9-10.1-7.5-16.1
			c-1.5-6-2.3-12.2-2.3-18.6c0-5.9,0.8-11.8,2.3-17.7c1.5-5.9,4-11.2,7.5-15.9c3.5-4.7,8-8.5,13.6-11.4c5.6-2.9,12.5-4.4,20.6-4.4
			c8.1,0,15,1.5,20.6,4.4c5.6,2.9,10.2,6.7,13.6,11.4c3.5,4.7,5.9,10,7.5,15.9c1.5,5.9,2.3,11.8,2.3,17.7c0,6.5-0.8,12.7-2.3,18.7
			c-1.5,6-4,11.4-7.5,16.1c-3.5,4.7-8,8.5-13.6,11.3C427.9,104.6,421.1,106,413,106z M413,23.1c-4.2,0-7.8,0.9-10.6,2.8
			c-2.9,1.8-5.1,4.3-6.8,7.3c-1.7,3-2.9,6.5-3.7,10.4c-0.7,3.9-1.1,7.9-1.1,12.1c0,4.4,0.4,8.6,1.1,12.7c0.7,4,2,7.6,3.7,10.7
			c1.7,3.1,4,5.5,6.8,7.4c2.9,1.8,6.4,2.8,10.6,2.8c4.2,0,7.8-0.9,10.6-2.8c2.8-1.8,5.1-4.3,6.8-7.4c1.7-3.1,3-6.6,3.7-10.7
			c0.7-4,1.1-8.3,1.1-12.7c0-4.1-0.4-8.2-1.1-12.1c-0.7-3.9-2-7.4-3.7-10.4c-1.8-3-4-5.5-6.8-7.3C420.7,24,417.2,23.1,413,23.1z"/>
		<g>
			<path style="fill:#1E1E1E;" d="M502.5,47.9c-1.8,0-3.8,0.2-6.3,0.7c-2.4,0.5-4.7,1.1-6.7,1.8v53.3h-19.3V32.6h13.4l2.9,7.9
				c1.4-1.5,3-2.8,4.8-4c1.8-1.2,3.8-2.2,5.9-3.1c2.1-0.9,4.2-1.6,6.3-2.1c2.1-0.5,4.1-0.8,6.1-0.8c2.7,0,4.4,0.2,5.2,0.6l-2.1,18.1
				c-1.4-0.4-2.9-0.7-4.6-0.9C506.6,48.1,504.7,47.9,502.5,47.9z"/>
			<path style="fill:#1E1E1E;" d="M553,30.5c4.6,0,8.7,1.1,12.2,3.3V3.3L584.1,0v103.7h-13.4l-2.1-6.1c-3.1,2.6-6.4,4.6-9.8,6
				c-3.4,1.4-6.6,2.1-9.5,2.1c-9.4,0-16.5-3.2-21.3-9.7c-4.8-6.4-7.3-15.8-7.3-28.2c0-5.7,0.8-10.9,2.3-15.5
				c1.5-4.6,3.7-8.5,6.5-11.8c2.8-3.3,6.2-5.8,10.2-7.5C543.6,31.4,548.1,30.5,553,30.5z M552.6,90.6c4,0,8.1-1.7,12.6-5.1V46.7
				c-3.8-0.8-7-1.2-9.7-1.2c-10.4,0-15.6,7.8-15.6,23.5C539.9,83.4,544.1,90.6,552.6,90.6z"/>
			<path style="fill:#1E1E1E;" d="M631.1,30.5c9.7,0,17.1,3,22.2,9.1c5.1,6.1,7.7,14.9,7.7,26.4c0,1.6-0.1,3.2-0.2,4.8
				c-0.1,1.7-0.3,2.9-0.5,3.6h-42.4c0.5,5.7,2.2,9.8,5.3,12.4c3.1,2.5,7.7,3.8,13.7,3.8c1.2,0,2.6-0.1,4.2-0.3
				c1.6-0.2,3.2-0.5,4.9-0.9c1.7-0.4,3.3-0.8,4.9-1.2c1.6-0.5,3-1,4.1-1.5l4.1,13c-1.4,0.8-3.1,1.6-5.1,2.4c-2,0.8-4.1,1.5-6.4,2
				c-2.2,0.6-4.4,1-6.7,1.3c-2.3,0.3-4.4,0.5-6.3,0.5c-11.9,0-20.9-3.2-26.9-9.5c-6.1-6.4-9.1-15.7-9.1-28c0-11.9,2.9-21.1,8.6-27.8
				C612.9,33.8,620.9,30.5,631.1,30.5z M630.4,44.8c-8.2,0-12.4,5.6-12.7,16.9h24.9c0-6.1-0.9-10.4-2.8-13
				C638,46.1,634.8,44.8,630.4,44.8z"/>
			<path style="fill:#1E1E1E;" d="M708,47.9c-1.7,0-3.8,0.2-6.3,0.7c-2.4,0.5-4.7,1.1-6.7,1.8v53.3h-19.3V32.6h13.4l2.9,7.9
				c1.4-1.5,3-2.8,4.8-4c1.8-1.2,3.8-2.2,5.9-3.1c2.1-0.9,4.2-1.6,6.3-2.1c2.1-0.5,4.1-0.8,6.1-0.8c2.7,0,4.4,0.2,5.2,0.6l-2.1,18.1
				c-1.4-0.4-2.9-0.7-4.6-0.9C712,48.1,710.1,47.9,708,47.9z"/>
		</g>
	</g>
</g>
<g>
</g>
<g>
</g>
<g>
</g>
<g>
</g>
<g>
</g>
<g>
</g>
</svg>
