<?xml version="1.0" encoding="utf-8"?>
<!-- Generator: Adobe Illustrator 18.0.0, SVG Export Plug-In . SVG Version: 6.00 Build 0)  -->
<!DOCTYPE svg PUBLIC "-//W3C//DTD SVG 1.1//EN" "http://www.w3.org/Graphics/SVG/1.1/DTD/svg11.dtd">
<svg version="1.1" id="icon" xmlns="http://www.w3.org/2000/svg" xmlns:xlink="http://www.w3.org/1999/xlink" x="0px" y="0px"
	 width="400px" height="400px" viewBox="0 0 400 400" style="enable-background:new 0 0 400 400;" xml:space="preserve">
<path style="fill:#FF2841;" d="M328.8,160c-47.4-3.4-85.4-41.4-88.8-88.8c-0.1-1.8-1.4-3.5-3.1-3.9c-13.6-3.8-28.1-5.5-43.1-4.9
	c-71.7,3.2-129.6,62.2-131.5,134c-2.1,79,62.4,143.5,141.4,141.4c71.8-1.9,130.7-59.7,134-131.4c0.7-15-1.1-29.5-4.9-43.2
	C332.3,161.4,330.7,160.1,328.8,160z M200,254.3c-30,0-54.3-24.4-54.3-54.3s24.4-54.3,54.3-54.3c30,0,54.3,24.4,54.3,54.3
	S230,254.3,200,254.3z"/>
</svg>
